<mxfile host="app.diagrams.net" agent="Mozilla/5.0 (Windows NT 10.0; Win64; x64) AppleWebKit/537.36 (KHTML, like Gecko) Chrome/131.0.0.0 Safari/537.36 Edg/131.0.0.0" version="26.0.4">
  <diagram id="R2lEEEUBdFMjLlhIrx00" name="Page-1">
    <mxGraphModel dx="2100" dy="751" grid="1" gridSize="10" guides="1" tooltips="1" connect="1" arrows="1" fold="1" page="1" pageScale="1" pageWidth="850" pageHeight="1100" math="0" shadow="0" extFonts="Permanent Marker^https://fonts.googleapis.com/css?family=Permanent+Marker">
      <root>
        <mxCell id="0" />
        <mxCell id="1" parent="0" />
        <mxCell id="bHssMF1aIb_r4F3_CLn2-1" value="Có" style="shape=rhombus;perimeter=rhombusPerimeter;whiteSpace=wrap;html=1;align=center;fontSize=12;" vertex="1" parent="1">
          <mxGeometry x="760" y="12" width="100" height="40" as="geometry" />
        </mxCell>
        <mxCell id="bHssMF1aIb_r4F3_CLn2-8" value="Tài Khoản" style="whiteSpace=wrap;html=1;align=center;" vertex="1" parent="1">
          <mxGeometry x="570" y="12" width="100" height="40" as="geometry" />
        </mxCell>
        <mxCell id="bHssMF1aIb_r4F3_CLn2-9" value="Khóa học" style="whiteSpace=wrap;html=1;align=center;" vertex="1" parent="1">
          <mxGeometry x="205" y="410" width="100" height="40" as="geometry" />
        </mxCell>
        <mxCell id="bHssMF1aIb_r4F3_CLn2-13" value="Quyền" style="whiteSpace=wrap;html=1;align=center;" vertex="1" parent="1">
          <mxGeometry x="950" y="12" width="100" height="40" as="geometry" />
        </mxCell>
        <mxCell id="bHssMF1aIb_r4F3_CLn2-28" value="Giảng Viên Khóa Học" style="whiteSpace=wrap;html=1;align=center;" vertex="1" parent="1">
          <mxGeometry x="190" y="12" width="130" height="40" as="geometry" />
        </mxCell>
        <mxCell id="bHssMF1aIb_r4F3_CLn2-34" value="Có" style="shape=rhombus;perimeter=rhombusPerimeter;whiteSpace=wrap;html=1;align=center;fontSize=12;" vertex="1" parent="1">
          <mxGeometry x="400" y="12" width="100" height="40" as="geometry" />
        </mxCell>
        <mxCell id="bHssMF1aIb_r4F3_CLn2-35" value="Có" style="shape=rhombus;perimeter=rhombusPerimeter;whiteSpace=wrap;html=1;align=center;fontSize=12;" vertex="1" parent="1">
          <mxGeometry x="560" y="730" width="100" height="40" as="geometry" />
        </mxCell>
        <mxCell id="bHssMF1aIb_r4F3_CLn2-36" value="Chi Tiết Thể Loại" style="rounded=1;arcSize=10;whiteSpace=wrap;html=1;align=center;" vertex="1" parent="1">
          <mxGeometry x="-10" y="170" width="100" height="40" as="geometry" />
        </mxCell>
        <mxCell id="bHssMF1aIb_r4F3_CLn2-37" value="Phần Học" style="whiteSpace=wrap;html=1;align=center;" vertex="1" parent="1">
          <mxGeometry x="205" y="640" width="100" height="40" as="geometry" />
        </mxCell>
        <mxCell id="bHssMF1aIb_r4F3_CLn2-39" value="Bài Học" style="whiteSpace=wrap;html=1;align=center;" vertex="1" parent="1">
          <mxGeometry x="560" y="640" width="100" height="40" as="geometry" />
        </mxCell>
        <mxCell id="bHssMF1aIb_r4F3_CLn2-40" value="Có" style="shape=rhombus;perimeter=rhombusPerimeter;whiteSpace=wrap;html=1;align=center;fontSize=12;" vertex="1" parent="1">
          <mxGeometry x="205" y="550" width="100" height="40" as="geometry" />
        </mxCell>
        <mxCell id="bHssMF1aIb_r4F3_CLn2-41" value="Có" style="shape=rhombus;perimeter=rhombusPerimeter;whiteSpace=wrap;html=1;align=center;fontSize=12;" vertex="1" parent="1">
          <mxGeometry x="380" y="640" width="100" height="40" as="geometry" />
        </mxCell>
        <mxCell id="bHssMF1aIb_r4F3_CLn2-43" value="Thể Loại" style="whiteSpace=wrap;html=1;align=center;" vertex="1" parent="1">
          <mxGeometry x="-160" y="130" width="100" height="40" as="geometry" />
        </mxCell>
        <mxCell id="bHssMF1aIb_r4F3_CLn2-44" value="Kết Quả Học Tập" style="whiteSpace=wrap;html=1;align=center;" vertex="1" parent="1">
          <mxGeometry x="920" y="420" width="100" height="40" as="geometry" />
        </mxCell>
        <mxCell id="bHssMF1aIb_r4F3_CLn2-45" value="Tài Liệu Học Tập" style="whiteSpace=wrap;html=1;align=center;" vertex="1" parent="1">
          <mxGeometry x="-30" y="30" width="100" height="40" as="geometry" />
        </mxCell>
        <mxCell id="bHssMF1aIb_r4F3_CLn2-46" value="Hóa Đơn" style="whiteSpace=wrap;html=1;align=center;" vertex="1" parent="1">
          <mxGeometry x="890" y="140" width="100" height="40" as="geometry" />
        </mxCell>
        <mxCell id="bHssMF1aIb_r4F3_CLn2-47" value="Chi Tiết Hóa Đơn" style="whiteSpace=wrap;html=1;align=center;" vertex="1" parent="1">
          <mxGeometry x="1030" y="210" width="100" height="40" as="geometry" />
        </mxCell>
        <mxCell id="bHssMF1aIb_r4F3_CLn2-48" value="Chi Tiết Giỏ Hàng" style="whiteSpace=wrap;html=1;align=center;" vertex="1" parent="1">
          <mxGeometry x="1000" y="330" width="100" height="40" as="geometry" />
        </mxCell>
        <mxCell id="bHssMF1aIb_r4F3_CLn2-49" value="Giỏ Hàng" style="whiteSpace=wrap;html=1;align=center;" vertex="1" parent="1">
          <mxGeometry x="820" y="230" width="100" height="40" as="geometry" />
        </mxCell>
        <mxCell id="bHssMF1aIb_r4F3_CLn2-50" value="Giảm giá" style="whiteSpace=wrap;html=1;align=center;" vertex="1" parent="1">
          <mxGeometry x="-70" y="260" width="100" height="40" as="geometry" />
        </mxCell>
        <mxCell id="bHssMF1aIb_r4F3_CLn2-51" value="Giàm Giá Khóa Học" style="whiteSpace=wrap;html=1;align=center;" vertex="1" parent="1">
          <mxGeometry x="-90" y="510" width="130" height="40" as="geometry" />
        </mxCell>
        <mxCell id="bHssMF1aIb_r4F3_CLn2-52" value="Giảm Giá Người Dùng" style="whiteSpace=wrap;html=1;align=center;" vertex="1" parent="1">
          <mxGeometry x="-100" y="410" width="130" height="40" as="geometry" />
        </mxCell>
        <mxCell id="bHssMF1aIb_r4F3_CLn2-53" value="Điều Kiện Giảm Giá" style="whiteSpace=wrap;html=1;align=center;" vertex="1" parent="1">
          <mxGeometry x="-120" y="610" width="130" height="40" as="geometry" />
        </mxCell>
        <mxCell id="bHssMF1aIb_r4F3_CLn2-54" value="Bài Tập Trắc Nghiem" style="whiteSpace=wrap;html=1;align=center;" vertex="1" parent="1">
          <mxGeometry x="545" y="830" width="130" height="40" as="geometry" />
        </mxCell>
        <mxCell id="bHssMF1aIb_r4F3_CLn2-55" value="Câu Hỏi" style="whiteSpace=wrap;html=1;align=center;" vertex="1" parent="1">
          <mxGeometry x="340" y="830" width="100" height="40" as="geometry" />
        </mxCell>
        <mxCell id="bHssMF1aIb_r4F3_CLn2-56" value="Trả Lời" style="whiteSpace=wrap;html=1;align=center;" vertex="1" parent="1">
          <mxGeometry x="90" y="830" width="100" height="40" as="geometry" />
        </mxCell>
        <mxCell id="bHssMF1aIb_r4F3_CLn2-67" value="" style="endArrow=none;html=1;rounded=0;entryX=0;entryY=0.5;entryDx=0;entryDy=0;exitX=1;exitY=0.5;exitDx=0;exitDy=0;" edge="1" parent="1" source="bHssMF1aIb_r4F3_CLn2-8" target="bHssMF1aIb_r4F3_CLn2-1">
          <mxGeometry relative="1" as="geometry">
            <mxPoint x="690" y="32" as="sourcePoint" />
            <mxPoint x="850" y="31.569999999999993" as="targetPoint" />
          </mxGeometry>
        </mxCell>
        <mxCell id="bHssMF1aIb_r4F3_CLn2-68" value="1,n" style="resizable=0;html=1;whiteSpace=wrap;align=left;verticalAlign=bottom;" connectable="0" vertex="1" parent="bHssMF1aIb_r4F3_CLn2-67">
          <mxGeometry x="-1" relative="1" as="geometry">
            <mxPoint x="10" as="offset" />
          </mxGeometry>
        </mxCell>
        <mxCell id="bHssMF1aIb_r4F3_CLn2-69" value="" style="resizable=0;html=1;whiteSpace=wrap;align=right;verticalAlign=bottom;" connectable="0" vertex="1" parent="bHssMF1aIb_r4F3_CLn2-67">
          <mxGeometry x="1" relative="1" as="geometry" />
        </mxCell>
        <mxCell id="bHssMF1aIb_r4F3_CLn2-76" value="" style="endArrow=none;html=1;rounded=0;exitX=1;exitY=0.5;exitDx=0;exitDy=0;entryX=0;entryY=0.5;entryDx=0;entryDy=0;" edge="1" parent="1" source="bHssMF1aIb_r4F3_CLn2-1" target="bHssMF1aIb_r4F3_CLn2-13">
          <mxGeometry relative="1" as="geometry">
            <mxPoint x="900" y="49.129999999999995" as="sourcePoint" />
            <mxPoint x="1060" y="49.129999999999995" as="targetPoint" />
          </mxGeometry>
        </mxCell>
        <mxCell id="bHssMF1aIb_r4F3_CLn2-77" value="1,1" style="resizable=0;html=1;whiteSpace=wrap;align=right;verticalAlign=bottom;" connectable="0" vertex="1" parent="bHssMF1aIb_r4F3_CLn2-76">
          <mxGeometry x="1" relative="1" as="geometry">
            <mxPoint x="-10" as="offset" />
          </mxGeometry>
        </mxCell>
        <mxCell id="bHssMF1aIb_r4F3_CLn2-78" value="" style="endArrow=none;html=1;rounded=0;exitX=1;exitY=0.5;exitDx=0;exitDy=0;entryX=0;entryY=0.5;entryDx=0;entryDy=0;" edge="1" parent="1" source="bHssMF1aIb_r4F3_CLn2-28" target="bHssMF1aIb_r4F3_CLn2-34">
          <mxGeometry relative="1" as="geometry">
            <mxPoint x="680" y="42" as="sourcePoint" />
            <mxPoint x="430" y="90" as="targetPoint" />
          </mxGeometry>
        </mxCell>
        <mxCell id="bHssMF1aIb_r4F3_CLn2-79" value="1,n" style="resizable=0;html=1;whiteSpace=wrap;align=left;verticalAlign=bottom;" connectable="0" vertex="1" parent="bHssMF1aIb_r4F3_CLn2-78">
          <mxGeometry x="-1" relative="1" as="geometry">
            <mxPoint x="10" as="offset" />
          </mxGeometry>
        </mxCell>
        <mxCell id="bHssMF1aIb_r4F3_CLn2-80" value="" style="resizable=0;html=1;whiteSpace=wrap;align=right;verticalAlign=bottom;" connectable="0" vertex="1" parent="bHssMF1aIb_r4F3_CLn2-78">
          <mxGeometry x="1" relative="1" as="geometry" />
        </mxCell>
        <mxCell id="bHssMF1aIb_r4F3_CLn2-81" value="" style="endArrow=none;html=1;rounded=0;exitX=1;exitY=0.5;exitDx=0;exitDy=0;entryX=0;entryY=0.5;entryDx=0;entryDy=0;" edge="1" parent="1" source="bHssMF1aIb_r4F3_CLn2-34" target="bHssMF1aIb_r4F3_CLn2-8">
          <mxGeometry relative="1" as="geometry">
            <mxPoint x="450" y="100" as="sourcePoint" />
            <mxPoint x="540" y="100" as="targetPoint" />
          </mxGeometry>
        </mxCell>
        <mxCell id="bHssMF1aIb_r4F3_CLn2-82" value="1,1" style="resizable=0;html=1;whiteSpace=wrap;align=right;verticalAlign=bottom;" connectable="0" vertex="1" parent="bHssMF1aIb_r4F3_CLn2-81">
          <mxGeometry x="1" relative="1" as="geometry">
            <mxPoint x="-10" as="offset" />
          </mxGeometry>
        </mxCell>
        <mxCell id="bHssMF1aIb_r4F3_CLn2-83" value="Có" style="shape=rhombus;perimeter=rhombusPerimeter;whiteSpace=wrap;html=1;align=center;fontSize=12;" vertex="1" parent="1">
          <mxGeometry x="205" y="170" width="100" height="40" as="geometry" />
        </mxCell>
        <mxCell id="bHssMF1aIb_r4F3_CLn2-84" value="" style="endArrow=none;html=1;rounded=0;exitX=0.5;exitY=1;exitDx=0;exitDy=0;entryX=0.5;entryY=0;entryDx=0;entryDy=0;" edge="1" parent="1" target="bHssMF1aIb_r4F3_CLn2-83" source="bHssMF1aIb_r4F3_CLn2-28">
          <mxGeometry relative="1" as="geometry">
            <mxPoint x="270" y="130" as="sourcePoint" />
            <mxPoint x="380" y="188" as="targetPoint" />
          </mxGeometry>
        </mxCell>
        <mxCell id="bHssMF1aIb_r4F3_CLn2-85" value="" style="resizable=0;html=1;whiteSpace=wrap;align=left;verticalAlign=bottom;" connectable="0" vertex="1" parent="bHssMF1aIb_r4F3_CLn2-84">
          <mxGeometry x="-1" relative="1" as="geometry">
            <mxPoint x="10" as="offset" />
          </mxGeometry>
        </mxCell>
        <mxCell id="bHssMF1aIb_r4F3_CLn2-86" value="" style="resizable=0;html=1;whiteSpace=wrap;align=right;verticalAlign=bottom;" connectable="0" vertex="1" parent="bHssMF1aIb_r4F3_CLn2-84">
          <mxGeometry x="1" relative="1" as="geometry" />
        </mxCell>
        <mxCell id="bHssMF1aIb_r4F3_CLn2-87" value="" style="endArrow=none;html=1;rounded=0;exitX=0.5;exitY=1;exitDx=0;exitDy=0;entryX=0.5;entryY=0;entryDx=0;entryDy=0;" edge="1" parent="1" source="bHssMF1aIb_r4F3_CLn2-83" target="bHssMF1aIb_r4F3_CLn2-9">
          <mxGeometry relative="1" as="geometry">
            <mxPoint x="400" y="198" as="sourcePoint" />
            <mxPoint x="520" y="130" as="targetPoint" />
          </mxGeometry>
        </mxCell>
        <mxCell id="bHssMF1aIb_r4F3_CLn2-88" value="" style="resizable=0;html=1;whiteSpace=wrap;align=right;verticalAlign=bottom;" connectable="0" vertex="1" parent="bHssMF1aIb_r4F3_CLn2-87">
          <mxGeometry x="1" relative="1" as="geometry">
            <mxPoint x="-10" as="offset" />
          </mxGeometry>
        </mxCell>
        <mxCell id="bHssMF1aIb_r4F3_CLn2-89" value="" style="endArrow=none;html=1;rounded=0;exitX=0.5;exitY=1;exitDx=0;exitDy=0;entryX=0.5;entryY=0;entryDx=0;entryDy=0;" edge="1" parent="1" source="bHssMF1aIb_r4F3_CLn2-9" target="bHssMF1aIb_r4F3_CLn2-40">
          <mxGeometry relative="1" as="geometry">
            <mxPoint x="360" y="510" as="sourcePoint" />
            <mxPoint x="520" y="510" as="targetPoint" />
          </mxGeometry>
        </mxCell>
        <mxCell id="bHssMF1aIb_r4F3_CLn2-90" value="" style="endArrow=none;html=1;rounded=0;exitX=0.5;exitY=1;exitDx=0;exitDy=0;entryX=0.5;entryY=0;entryDx=0;entryDy=0;" edge="1" parent="1" source="bHssMF1aIb_r4F3_CLn2-40" target="bHssMF1aIb_r4F3_CLn2-37">
          <mxGeometry relative="1" as="geometry">
            <mxPoint x="265" y="500" as="sourcePoint" />
            <mxPoint x="265" y="560" as="targetPoint" />
          </mxGeometry>
        </mxCell>
        <mxCell id="bHssMF1aIb_r4F3_CLn2-92" value="" style="endArrow=none;html=1;rounded=0;exitX=1;exitY=0.5;exitDx=0;exitDy=0;entryX=0;entryY=0.5;entryDx=0;entryDy=0;" edge="1" parent="1" source="bHssMF1aIb_r4F3_CLn2-37" target="bHssMF1aIb_r4F3_CLn2-41">
          <mxGeometry relative="1" as="geometry">
            <mxPoint x="360" y="620" as="sourcePoint" />
            <mxPoint x="520" y="620" as="targetPoint" />
          </mxGeometry>
        </mxCell>
        <mxCell id="bHssMF1aIb_r4F3_CLn2-93" value="" style="endArrow=none;html=1;rounded=0;entryX=0;entryY=0.5;entryDx=0;entryDy=0;exitX=1;exitY=0.5;exitDx=0;exitDy=0;" edge="1" parent="1" source="bHssMF1aIb_r4F3_CLn2-41" target="bHssMF1aIb_r4F3_CLn2-39">
          <mxGeometry relative="1" as="geometry">
            <mxPoint x="360" y="620" as="sourcePoint" />
            <mxPoint x="520" y="620" as="targetPoint" />
          </mxGeometry>
        </mxCell>
        <mxCell id="bHssMF1aIb_r4F3_CLn2-94" value="" style="endArrow=none;html=1;rounded=0;entryX=0.5;entryY=1;entryDx=0;entryDy=0;exitX=0.5;exitY=0;exitDx=0;exitDy=0;" edge="1" parent="1" source="bHssMF1aIb_r4F3_CLn2-35" target="bHssMF1aIb_r4F3_CLn2-39">
          <mxGeometry relative="1" as="geometry">
            <mxPoint x="360" y="720" as="sourcePoint" />
            <mxPoint x="460" y="720" as="targetPoint" />
          </mxGeometry>
        </mxCell>
        <mxCell id="bHssMF1aIb_r4F3_CLn2-96" value="" style="endArrow=none;html=1;rounded=0;entryX=0.5;entryY=1;entryDx=0;entryDy=0;exitX=0.5;exitY=0;exitDx=0;exitDy=0;" edge="1" parent="1" source="bHssMF1aIb_r4F3_CLn2-54" target="bHssMF1aIb_r4F3_CLn2-35">
          <mxGeometry relative="1" as="geometry">
            <mxPoint x="340" y="750" as="sourcePoint" />
            <mxPoint x="500" y="750" as="targetPoint" />
          </mxGeometry>
        </mxCell>
        <mxCell id="bHssMF1aIb_r4F3_CLn2-98" value="" style="endArrow=none;html=1;rounded=0;exitX=1;exitY=0.5;exitDx=0;exitDy=0;entryX=0;entryY=0.5;entryDx=0;entryDy=0;" edge="1" parent="1" source="bHssMF1aIb_r4F3_CLn2-55" target="bHssMF1aIb_r4F3_CLn2-54">
          <mxGeometry relative="1" as="geometry">
            <mxPoint x="350" y="620" as="sourcePoint" />
            <mxPoint x="510" y="620" as="targetPoint" />
          </mxGeometry>
        </mxCell>
        <mxCell id="bHssMF1aIb_r4F3_CLn2-99" value="" style="endArrow=none;html=1;rounded=0;exitX=1;exitY=0.5;exitDx=0;exitDy=0;entryX=0;entryY=0.5;entryDx=0;entryDy=0;" edge="1" parent="1" source="bHssMF1aIb_r4F3_CLn2-56" target="bHssMF1aIb_r4F3_CLn2-55">
          <mxGeometry relative="1" as="geometry">
            <mxPoint x="180" y="750" as="sourcePoint" />
            <mxPoint x="340" y="750" as="targetPoint" />
          </mxGeometry>
        </mxCell>
      </root>
    </mxGraphModel>
  </diagram>
</mxfile>
